<svg width="65" height="65" viewBox="0 0 65 65" fill="none" xmlns="http://www.w3.org/2000/svg">
<path d="M32.5 37.9167C38.4746 37.9167 43.3333 33.0579 43.3333 27.0833C43.3333 21.1087 38.4746 16.25 32.5 16.25C26.5254 16.25 21.6667 21.1087 21.6667 27.0833C21.6667 33.0579 26.5254 37.9167 32.5 37.9167ZM32.5 21.6667C35.4873 21.6667 37.9167 24.096 37.9167 27.0833C37.9167 30.0706 35.4873 32.5 32.5 32.5C29.5127 32.5 27.0833 30.0706 27.0833 27.0833C27.0833 24.096 29.5127 21.6667 32.5 21.6667Z" fill="#F3C305"/>
<path d="M30.9292 59.0795C31.3875 59.4069 31.9367 59.5829 32.5 59.5829C33.0633 59.5829 33.6125 59.4069 34.0708 59.0795C34.8942 58.4972 54.2452 44.525 54.1667 27.0833C54.1667 15.1368 44.4465 5.41663 32.5 5.41663C20.5535 5.41663 10.8333 15.1368 10.8333 27.0697C10.7548 44.525 30.1058 58.4972 30.9292 59.0795ZM32.5 10.8333C41.4619 10.8333 48.75 18.1214 48.75 27.0968C48.8069 39.1164 36.8658 49.9091 32.5 53.4489C28.1369 49.9064 16.1931 39.111 16.25 27.0833C16.25 18.1214 23.5381 10.8333 32.5 10.8333Z" fill="#F3C305"/>
</svg>
