<svg width="40" height="40" viewBox="0 0 40 40" fill="none" xmlns="http://www.w3.org/2000/svg">
<path d="M6.66668 30.3337C5.75001 30.3337 4.96557 30.0076 4.31334 29.3553C3.66112 28.7031 3.33445 27.9181 3.33334 27.0003V7.00033C3.33334 6.08366 3.66001 5.29921 4.31334 4.64699C4.96668 3.99477 5.75112 3.6681 6.66668 3.66699H33.3333C34.25 3.66699 35.035 3.99366 35.6883 4.64699C36.3417 5.30033 36.6678 6.08477 36.6667 7.00033V27.0003C36.6667 27.917 36.3406 28.702 35.6883 29.3553C35.0361 30.0087 34.2511 30.3348 33.3333 30.3337H6.66668ZM20 18.667L33.3333 10.3337V7.00033L20 15.3337L6.66668 7.00033V10.3337L20 18.667Z" fill="#F8F8F8"/>
</svg>
